# xmcd CD database file
#
# Track frame offsets:
#	150
#	7278
#	23788
#	42299
#	65251
#	85578
#	95417
#	122149
#	138581
#	160589
#	175981
#	203408
#
# Disc length: 2911 seconds
#
# Revision: 4
# Processed by: cddbd v1.5.1PL0 Copyright (c) Steve Scherf et al.
# Submitted via: CDex 1.51
#
DISCID=950b5d0c
DTITLE=ACIDMAN - 創
DYEAR=2002
DGENRE=Rock
TTITLE0=8to1 completed
TTITLE1=造花が笑う
TTITLE2=アレグロ
TTITLE3=赤橙
TTITLE4=バックグラウンド
TTITLE5=at
TTITLE6=spaced out
TTITLE7=香路
TTITLE8=シンプルストーリー
TTITLE9=SILENCE
TTITLE10=揺れる球体
TTITLE11=Your Song
EXTD=YEAR: 2002
EXTT0=
EXTT1=
EXTT2=
EXTT3=
EXTT4=
EXTT5=
EXTT6=
EXTT7=
EXTT8=
EXTT9=
EXTT10=
EXTT11=
PLAYORDER=
